# xmcd
#
# Track frame offsets: 
#        150
#        15838
#        29880
#        44345
#        54652
#        69729
#        83594
#        98509
#        114664
#        126992
#
# Disc length: 1890 seconds
#
# Revision: 0
# Processed by: cddbd v1.5.1PL2 Copyright (c) Steve Scherf et al.
# Submitted via: ExactAudioCopy v0.95a5
#
DISCID=8007600a
DTITLE=Various Artist - Ladies of Blues Disc 1
DYEAR=1998
DGENRE=Blues
TTITLE0=Lizzie Miles_-_I Hate A Man Like You
TTITLE1=Victoria Spivey_-_Moaning The Blues
TTITLE2=Lilian Glinn_-_Shreveport Blues
TTITLE3=Lottie Beaman_-_Rolling Log Blues
TTITLE4=Hattie Hart_-_Won't You Be Kind To Me
TTITLE5=Mary Johnson_-_Black Men Blues
TTITLE6=Edith Johnson_-_Can't Make Another Day
TTITLE7=Alice Moore_-_Black And Evil Blues
TTITLE8=Mattie Delaney_-_Tallahatchie River Blues
TTITLE9=Rosa Henderson_-_Can't Be Bothered With No Sheiks
EXTD=
EXTT0=
EXTT1=
EXTT2=
EXTT3=
EXTT4=
EXTT5=
EXTT6=
EXTT7=
EXTT8=
EXTT9=
PLAYORDER=
